# xmcd CD database file
#
# Track frame offsets:
#	150
#	16227
#	29527
#	46783
#	59817
#	76559
#	88415
#	108939
#	119250
#	137674
#	150259
#	165920
#
# Disc length: 2412 seconds
#
# Revision: 0
# Processed by: cddbd v1.5.2PL0 Copyright (c) Steve Scherf et al.
# Submitted via: ACXtractor (MTCDDB.DLL V2003.12.21)
#
DISCID=88096a0c
DTITLE=Reg Poole - The Cream of Australian Country
DYEAR=1997
DGENRE=Country
TTITLE0=Where Country Is
TTITLE1=Where The Murrumbidgee Wends It's Way
TTITLE2=Beautiful Queensland
TTITLE3=Saddle Boy
TTITLE4=Roper River
TTITLE5=Over Hill-Top and Hollow
TTITLE6=Prairie Rose
TTITLE7=Goondiwindi Grey
TTITLE8=Now I'm Easy
TTITLE9=Call of the Bellbirds
TTITLE10=Where the Lazy Murry River Rolls Along
TTITLE11=Three Rivers Hotel
EXTD=ID3G:   2 YEAR: 1997
EXTT0=
EXTT1=
EXTT2=
EXTT3=
EXTT4=
EXTT5=
EXTT6=
EXTT7=
EXTT8=
EXTT9=
EXTT10=
EXTT11=
PLAYORDER=
